<?xml version="1.0" encoding="UTF-8"?>
<svg width="38px" height="39px" viewBox="0 0 38 39" version="1.1" xmlns="http://www.w3.org/2000/svg" xmlns:xlink="http://www.w3.org/1999/xlink">
    <!-- Generator: Sketch 53.2 (72643) - https://sketchapp.com -->
    <title>Group 3</title>
    <desc>Created with Sketch.</desc>
    <g id="Page-1" stroke="none" stroke-width="1" fill="none" fill-rule="evenodd">
        <g id="Weather" transform="translate(-692.000000, -723.000000)" fill-rule="nonzero">
            <g id="Group-3" transform="translate(692.000000, 723.000000)">
                <circle id="Oval" stroke="#65AED5" stroke-width="2.8" cx="19" cy="20" r="8"></circle>
                <path d="M36.3597045,21.2694545 L33.0869773,21.2694545 C32.1837045,21.2694545 31.4506136,20.5371818 31.4506136,19.6330909 C31.4506136,18.7298182 32.1837045,17.9983636 33.0869773,17.9983636 L36.3597045,17.9983636 C37.2629773,17.9983636 37.9960682,18.7306364 37.9960682,19.6330909 C37.9960682,20.5371818 37.2629773,21.2694545 36.3597045,21.2694545 Z" id="Path" fill="#65AED5"></path>
                <path d="M4.90909091,21.2710909 L1.63636364,21.2710909 C0.733090909,21.2710909 -2.13162821e-14,20.5388182 -2.13162821e-14,19.6347273 C-2.13162821e-14,18.7314545 0.733090909,18 1.63636364,18 L4.90909091,18 C5.81236364,18 6.54545455,18.7322727 6.54545455,19.6347273 C6.54545455,20.5388182 5.81236364,21.2710909 4.90909091,21.2710909 Z" id="Path" fill="#65AED5"></path>
                <path d="M29.93125,10.3778182 C29.29225,11.0168182 28.2564318,11.0168182 27.6174318,10.3778182 C26.9784318,9.73963636 26.9784318,8.703 27.6174318,8.06481818 L29.93125,5.751 C30.57025,5.112 31.6060682,5.112 32.2450682,5.751 C32.8840682,6.38918182 32.8840682,7.42581818 32.2450682,8.06481818 L29.93125,10.3778182 Z" id="Path" fill="#65AED5"></path>
                <path d="M29.7926591,34.1064773 C29.1536591,34.7454773 28.1178409,34.7454773 27.4788409,34.1064773 C26.8398409,33.4682955 26.8398409,32.4316591 27.4788409,31.7934773 L29.7926591,29.4796591 C30.4316591,28.8406591 31.4674773,28.8406591 32.1064773,29.4796591 C32.7454773,30.1178409 32.7454773,31.1544773 32.1064773,31.7934773 L29.7926591,34.1064773 Z" id="Path" fill="#65AED5" transform="translate(29.792659, 31.793068) rotate(90.000000) translate(-29.792659, -31.793068) "></path>
                <path d="M18.3613409,6.54381818 C17.4580682,6.54381818 16.7257955,5.81154545 16.7257955,4.90827273 L16.7257955,1.63636364 C16.7257955,0.732272727 17.4588864,-4.17443857e-14 18.3613409,-4.17443857e-14 C19.2654318,-4.17443857e-14 19.9977045,0.732272727 19.9977045,1.63636364 L19.9977045,4.90827273 C19.9977045,5.81236364 19.26625,6.54381818 18.3613409,6.54381818 Z" id="Path" fill="#65AED5"></path>
                <path d="M18.6355455,38.5438182 C17.7322727,38.5438182 17,37.8115455 17,36.9082727 L17,33.6363636 C17,32.7322727 17.7330909,32 18.6355455,32 C19.5396364,32 20.2719091,32.7322727 20.2719091,33.6363636 L20.2719091,36.9082727 C20.2719091,37.8123636 19.5404545,38.5438182 18.6355455,38.5438182 Z" id="Path" fill="#65AED5"></path>
                <path d="M6.79225,10.3778182 L4.47925,8.06481818 C3.84025,7.42581818 3.84025,6.38918182 4.47925,5.751 C5.11743182,5.112 6.15406818,5.112 6.79225,5.751 L9.10606818,8.06481818 C9.74506818,8.703 9.74506818,9.73963636 9.10606818,10.3778182 C8.46788636,11.0168182 7.43125,11.0168182 6.79225,10.3778182 Z" id="Path" fill="#65AED5"></path>
                <path d="M6.79225,34.1060682 L4.47925,31.7930682 C3.84025,31.1540682 3.84025,30.1174318 4.47925,29.47925 C5.11743182,28.84025 6.15406818,28.84025 6.79225,29.47925 L9.10606818,31.7930682 C9.74506818,32.43125 9.74506818,33.4678864 9.10606818,34.1060682 C8.46788636,34.7450682 7.43125,34.7450682 6.79225,34.1060682 Z" id="Path" fill="#65AED5" transform="translate(6.792659, 31.792659) rotate(90.000000) translate(-6.792659, -31.792659) "></path>
            </g>
        </g>
    </g>
</svg>