<?xml version="1.0" encoding="UTF-8"?>
<svg width="146px" height="84px" viewBox="0 0 146 84" version="1.1" xmlns="http://www.w3.org/2000/svg" xmlns:xlink="http://www.w3.org/1999/xlink">
    <!-- Generator: Sketch 53.2 (72643) - https://sketchapp.com -->
    <title>Combined Shape</title>
    <desc>Created with Sketch.</desc>
    <g id="Page-1" stroke="none" stroke-width="1" fill="none" fill-rule="evenodd" opacity="0.887834821">
        <g id="Weather" transform="translate(-86.000000, -333.000000)" fill="#FFFFFF">
            <g id="Group-2" transform="translate(82.000000, 323.000000)">
                <path d="M68.6301993,88.5311486 C65.5891948,90.9375484 61.6674494,92.3867188 57.3867188,92.3867188 C49.8099274,92.3867188 43.357771,87.8467352 40.9233887,81.4945851 C37.8351845,82.7133874 34.4443983,83.3867188 30.8867188,83.3867188 C16.5273153,83.3867188 4.88671875,72.4176951 4.88671875,58.8867188 C4.88671875,45.3557424 16.5273153,34.3867188 30.8867188,34.3867188 C36.0782037,34.3867188 40.9143122,35.8204851 44.9734275,38.2907253 C50.6920166,21.5291716 67.51885,9.38671875 87.3867188,9.38671875 C104.734846,9.38671875 119.764382,18.6445456 127.104673,32.1516112 C128.771302,31.6547254 130.545815,31.3867188 132.386719,31.3867188 C142.051702,31.3867188 149.886719,38.7740204 149.886719,47.8867188 C149.886719,56.9994171 142.051702,64.3867188 132.386719,64.3867188 C131.423515,64.3867188 130.478486,64.3133485 129.557576,64.1722121 C123.617615,80.5762379 106.981114,92.3867188 87.3867188,92.3867188 C80.6853845,92.3867188 74.3300226,91.0052966 68.6301993,88.5311486 Z" id="Combined-Shape" transform="translate(77.386719, 50.886719) rotate(7.000000) translate(-77.386719, -50.886719) "></path>
            </g>
        </g>
    </g>
</svg>