<?xml version="1.0" encoding="UTF-8"?>
<svg width="45px" height="40px" viewBox="0 0 45 40" version="1.1" xmlns="http://www.w3.org/2000/svg" xmlns:xlink="http://www.w3.org/1999/xlink">
    <!-- Generator: Sketch 53.2 (72643) - https://sketchapp.com -->
    <title>Cloud-Sun</title>
    <desc>Created with Sketch.</desc>
    <g id="Page-1" stroke="none" stroke-width="1" fill="none" fill-rule="evenodd">
        <g id="Weather" transform="translate(-274.000000, -212.000000)" fill="#65AED5" fill-rule="nonzero">
            <g id="TODAY" transform="translate(205.000000, 195.000000)">
                <g id="Cloud-Sun" transform="translate(69.000000, 17.000000)">
                    <path d="M43.3153636,21.7971818 L40.0426364,21.7971818 C39.1393636,21.7971818 38.4062727,21.0649091 38.4062727,20.1608182 C38.4062727,19.2575455 39.1393636,18.5260909 40.0426364,18.5260909 L43.3153636,18.5260909 C44.2186364,18.5260909 44.9517273,19.2583636 44.9517273,20.1608182 C44.9517273,21.0649091 44.2186364,21.7971818 43.3153636,21.7971818 Z M36.8869091,10.9055455 C36.2479091,11.5445455 35.2120909,11.5445455 34.5730909,10.9055455 C33.9340909,10.2673636 33.9340909,9.23072727 34.5730909,8.59254545 L36.8869091,6.27872727 C37.5259091,5.63972727 38.5617273,5.63972727 39.2007273,6.27872727 C39.8397273,6.91690909 39.8397273,7.95354545 39.2007273,8.59254545 L36.8869091,10.9055455 Z M34.4757273,23.6749091 L34.4757273,23.6749091 C35.9067273,25.3816364 36.7715455,27.5776364 36.7715455,29.979 C36.7715455,35.3994545 32.3762727,39.7955455 26.9541818,39.7955455 C24.6837273,39.7955455 16.4806364,39.7955455 13.8649091,39.7955455 C6.63627273,39.7955455 0.775636364,33.9357273 0.775636364,26.7062727 C0.775636364,19.4768182 6.63627273,13.617 13.8649091,13.617 C15.1510909,13.617 16.3930909,13.8068182 17.5655455,14.1520909 C19.3614545,11.8390909 22.1620909,10.3442727 25.3178182,10.3442727 C30.7399091,10.3442727 35.1351818,14.7403636 35.1351818,20.1608182 C35.1343636,21.4003636 34.8946364,22.5834545 34.4757273,23.6749091 Z M4.04754545,26.7062727 C4.04754545,32.1283636 8.442,36.5228182 13.8640909,36.5228182 C16.8226364,36.5228182 24.4832727,36.5228182 26.9533636,36.5228182 C30.5680909,36.5228182 33.498,33.5920909 33.498,29.979 C33.498,26.3642727 30.5680909,23.4335455 26.9533636,23.4335455 C25.6442727,23.4335455 24.4309091,23.8279091 23.4081818,24.4898182 C22.401,20.1403636 18.5203636,16.8897273 13.8640909,16.8897273 C8.442,16.8897273 4.04754545,21.2841818 4.04754545,26.7062727 Z M25.317,13.617 C23.5071818,13.617 21.8683636,14.3517273 20.6844545,15.5389091 C22.599,16.7138182 24.1903636,18.3640909 25.29,20.3285455 C25.8332727,20.2360909 26.3839091,20.1608182 26.9533636,20.1608182 C28.692,20.1608182 30.3234545,20.6181818 31.7397273,21.4101818 L31.7397273,21.4101818 C31.8182727,21.006 31.8624545,20.5887273 31.8624545,20.1608182 C31.8624545,16.5477273 28.9317273,13.617 25.317,13.617 Z M25.317,7.07154545 C24.4137273,7.07154545 23.6814545,6.33927273 23.6814545,5.436 L23.6814545,2.16409091 C23.6814545,1.26 24.4145455,0.527727273 25.317,0.527727273 C26.2210909,0.527727273 26.9533636,1.26 26.9533636,2.16409091 L26.9533636,5.436 C26.9533636,6.34009091 26.2219091,7.07154545 25.317,7.07154545 Z M13.7479091,10.9055455 L11.4349091,8.59254545 C10.7959091,7.95354545 10.7959091,6.91690909 11.4349091,6.27872727 C12.0730909,5.63972727 13.1097273,5.63972727 13.7479091,6.27872727 L16.0617273,8.59254545 C16.7007273,9.23072727 16.7007273,10.2673636 16.0617273,10.9055455 C15.4235455,11.5445455 14.3869091,11.5445455 13.7479091,10.9055455 Z" id="Shape"></path>
                </g>
            </g>
        </g>
    </g>
</svg>